<mxfile host="65bd71144e">
    <diagram id="C6awfudmIj2i-8Lco_9b" name="Page-1">
        <mxGraphModel dx="2084" dy="1727" grid="0" gridSize="10" guides="1" tooltips="1" connect="1" arrows="1" fold="1" page="1" pageScale="1" pageWidth="850" pageHeight="1100" math="0" shadow="0">
            <root>
                <mxCell id="0"/>
                <mxCell id="1" parent="0"/>
                <mxCell id="BolRn20qtU3Z9M9oc3L7-20" value="&lt;i style=&quot;color: rgb(0 , 0 , 0) ; font-family: &amp;#34;helvetica&amp;#34; ; font-size: 10px ; font-weight: 400 ; letter-spacing: normal ; text-align: center ; text-indent: 0px ; text-transform: none ; word-spacing: 0px&quot;&gt;workflows register &lt;br&gt;new STAC items&lt;/i&gt;" style="edgeStyle=orthogonalEdgeStyle;rounded=0;orthogonalLoop=1;jettySize=auto;html=1;entryX=0;entryY=0.5;entryDx=0;entryDy=0;entryPerimeter=0;fontSize=10;exitX=1;exitY=0.5;exitDx=0;exitDy=0;" parent="1" source="BolRn20qtU3Z9M9oc3L7-18" target="BolRn20qtU3Z9M9oc3L7-8" edge="1">
                    <mxGeometry x="-0.0004" relative="1" as="geometry">
                        <Array as="points">
                            <mxPoint x="370" y="245"/>
                            <mxPoint x="370" y="370"/>
                        </Array>
                        <mxPoint as="offset"/>
                    </mxGeometry>
                </mxCell>
                <mxCell id="BolRn20qtU3Z9M9oc3L7-43" value="" style="group" parent="1" vertex="1" connectable="0">
                    <mxGeometry x="190" y="160" width="110" height="248" as="geometry"/>
                </mxCell>
                <mxCell id="BolRn20qtU3Z9M9oc3L7-38" value="" style="group" parent="BolRn20qtU3Z9M9oc3L7-43" vertex="1" connectable="0">
                    <mxGeometry y="30" width="110" height="120" as="geometry"/>
                </mxCell>
                <mxCell id="BolRn20qtU3Z9M9oc3L7-18" value="&lt;span style=&quot;font-weight: 700&quot;&gt;data discovery workflows&lt;/span&gt;" style="whiteSpace=wrap;html=1;aspect=fixed;verticalAlign=bottom;spacingBottom=-35;spacing=0;" parent="BolRn20qtU3Z9M9oc3L7-38" vertex="1">
                    <mxGeometry width="110" height="110" as="geometry"/>
                </mxCell>
                <mxCell id="BolRn20qtU3Z9M9oc3L7-1" value="" style="sketch=0;points=[[0,0,0],[0.25,0,0],[0.5,0,0],[0.75,0,0],[1,0,0],[0,1,0],[0.25,1,0],[0.5,1,0],[0.75,1,0],[1,1,0],[0,0.25,0],[0,0.5,0],[0,0.75,0],[1,0.25,0],[1,0.5,0],[1,0.75,0]];outlineConnect=0;fontColor=#232F3E;gradientColor=#FF4F8B;gradientDirection=north;fillColor=#BC1356;strokeColor=#ffffff;dashed=0;verticalLabelPosition=bottom;verticalAlign=top;align=center;html=1;fontSize=12;fontStyle=0;aspect=fixed;shape=mxgraph.aws4.resourceIcon;resIcon=mxgraph.aws4.step_functions;" parent="BolRn20qtU3Z9M9oc3L7-38" vertex="1">
                    <mxGeometry x="7.857142857142857" y="12.857142857142856" width="61.285714285714285" height="61.285714285714285" as="geometry"/>
                </mxCell>
                <mxCell id="BolRn20qtU3Z9M9oc3L7-2" value="" style="sketch=0;points=[[0,0,0],[0.25,0,0],[0.5,0,0],[0.75,0,0],[1,0,0],[0,1,0],[0.25,1,0],[0.5,1,0],[0.75,1,0],[1,1,0],[0,0.25,0],[0,0.5,0],[0,0.75,0],[1,0.25,0],[1,0.5,0],[1,0.75,0]];outlineConnect=0;fontColor=#232F3E;gradientColor=#FF4F8B;gradientDirection=north;fillColor=#BC1356;strokeColor=#ffffff;dashed=0;verticalLabelPosition=bottom;verticalAlign=top;align=center;html=1;fontSize=12;fontStyle=0;aspect=fixed;shape=mxgraph.aws4.resourceIcon;resIcon=mxgraph.aws4.step_functions;" parent="BolRn20qtU3Z9M9oc3L7-38" vertex="1">
                    <mxGeometry x="23.57142857142857" y="25.71428571428571" width="61.285714285714285" height="61.285714285714285" as="geometry"/>
                </mxCell>
                <mxCell id="BolRn20qtU3Z9M9oc3L7-3" value="" style="sketch=0;points=[[0,0,0],[0.25,0,0],[0.5,0,0],[0.75,0,0],[1,0,0],[0,1,0],[0.25,1,0],[0.5,1,0],[0.75,1,0],[1,1,0],[0,0.25,0],[0,0.5,0],[0,0.75,0],[1,0.25,0],[1,0.5,0],[1,0.75,0]];outlineConnect=0;fontColor=#232F3E;gradientColor=#FF4F8B;gradientDirection=north;fillColor=#BC1356;strokeColor=#ffffff;dashed=0;verticalLabelPosition=bottom;verticalAlign=bottom;align=center;html=1;fontSize=12;fontStyle=0;aspect=fixed;shape=mxgraph.aws4.resourceIcon;resIcon=mxgraph.aws4.step_functions;" parent="BolRn20qtU3Z9M9oc3L7-38" vertex="1">
                    <mxGeometry x="39.285714285714285" y="38.57142857142857" width="61.285714285714285" height="61.285714285714285" as="geometry"/>
                </mxCell>
                <mxCell id="BolRn20qtU3Z9M9oc3L7-45" value="&lt;i style=&quot;font-size: 10px;&quot;&gt;user may trigger &lt;br style=&quot;font-size: 10px;&quot;&gt;data discovery workflow&lt;/i&gt;" style="edgeStyle=orthogonalEdgeStyle;curved=1;rounded=0;orthogonalLoop=1;jettySize=auto;html=1;entryX=0;entryY=0.5;entryDx=0;entryDy=0;fontSize=10;exitX=0;exitY=0.75;exitDx=0;exitDy=0;dashed=1;" parent="BolRn20qtU3Z9M9oc3L7-43" source="BolRn20qtU3Z9M9oc3L7-41" target="BolRn20qtU3Z9M9oc3L7-18" edge="1">
                    <mxGeometry relative="1" as="geometry">
                        <Array as="points">
                            <mxPoint x="-80" y="233"/>
                            <mxPoint x="-80" y="85"/>
                        </Array>
                    </mxGeometry>
                </mxCell>
                <mxCell id="BolRn20qtU3Z9M9oc3L7-41" value="&lt;b style=&quot;font-size: 12px;&quot;&gt;end user&lt;/b&gt;" style="shape=actor;whiteSpace=wrap;html=1;labelBackgroundColor=none;fontSize=12;verticalAlign=bottom;spacingBottom=-20;spacing=0;" parent="BolRn20qtU3Z9M9oc3L7-43" vertex="1">
                    <mxGeometry x="20" y="188" width="49" height="60" as="geometry"/>
                </mxCell>
                <mxCell id="5" value="" style="group" vertex="1" connectable="0" parent="1">
                    <mxGeometry x="773" y="290" width="79.66999999999996" height="85" as="geometry"/>
                </mxCell>
                <mxCell id="BolRn20qtU3Z9M9oc3L7-36" value="&lt;span style=&quot;color: rgb(0 , 0 , 0) ; font-family: &amp;#34;helvetica&amp;#34; ; font-size: 12px ; font-style: normal ; font-weight: 700 ; letter-spacing: normal ; text-align: center ; text-indent: 0px ; text-transform: none ; word-spacing: 0px ; background-color: rgb(248 , 249 , 250) ; display: inline ; float: none&quot;&gt;STAC Database&lt;/span&gt;" style="rounded=0;whiteSpace=wrap;html=1;fontSize=10;verticalAlign=bottom;spacingBottom=-35;" parent="5" vertex="1">
                    <mxGeometry width="79.67" height="85" as="geometry"/>
                </mxCell>
                <mxCell id="BolRn20qtU3Z9M9oc3L7-23" value="" style="sketch=0;points=[[0,0,0],[0.25,0,0],[0.5,0,0],[0.75,0,0],[1,0,0],[0,1,0],[0.25,1,0],[0.5,1,0],[0.75,1,0],[1,1,0],[0,0.25,0],[0,0.5,0],[0,0.75,0],[1,0.25,0],[1,0.5,0],[1,0.75,0]];outlineConnect=0;fontColor=#232F3E;gradientColor=#4D72F3;gradientDirection=north;fillColor=#3334B9;strokeColor=#ffffff;dashed=0;verticalLabelPosition=bottom;verticalAlign=top;align=center;html=1;fontSize=12;fontStyle=0;aspect=fixed;shape=mxgraph.aws4.resourceIcon;resIcon=mxgraph.aws4.rds;" parent="5" vertex="1">
                    <mxGeometry x="13.942622950819668" y="14.002027649769587" width="51.78688524590164" height="51.78688524590164" as="geometry"/>
                </mxCell>
                <mxCell id="RfEghbo9T3Lm3zJ97IZA-1" value="" style="shape=image;verticalLabelPosition=bottom;labelBackgroundColor=default;verticalAlign=top;aspect=fixed;imageAspect=0;image=https://upload.wikimedia.org/wikipedia/commons/thumb/2/29/Postgresql_elephant.svg/1985px-Postgresql_elephant.svg.png;" parent="5" vertex="1">
                    <mxGeometry x="53" y="56" width="19.38" height="20" as="geometry"/>
                </mxCell>
                <mxCell id="7" value="" style="group;labelBackgroundColor=none;fontSize=10;" vertex="1" connectable="0" parent="1">
                    <mxGeometry x="425" y="110" width="257.05999999999995" height="320" as="geometry"/>
                </mxCell>
                <mxCell id="BolRn20qtU3Z9M9oc3L7-6" value="&lt;span style=&quot;font-weight: 700&quot;&gt;STAC ingestor&lt;/span&gt;&lt;br style=&quot;padding: 0px ; margin: 0px ; font-weight: 700&quot;&gt;&lt;span style=&quot;font-weight: 700&quot;&gt;(you are here)&lt;/span&gt;" style="rounded=0;whiteSpace=wrap;html=1;verticalAlign=bottom;spacingTop=0;spacingBottom=-35;labelBackgroundColor=default;fontColor=default;" parent="7" vertex="1">
                    <mxGeometry width="242" height="320" as="geometry"/>
                </mxCell>
                <mxCell id="BolRn20qtU3Z9M9oc3L7-7" value="" style="sketch=0;points=[[0,0,0],[0.25,0,0],[0.5,0,0],[0.75,0,0],[1,0,0],[0,1,0],[0.25,1,0],[0.5,1,0],[0.75,1,0],[1,1,0],[0,0.25,0],[0,0.5,0],[0,0.75,0],[1,0.25,0],[1,0.5,0],[1,0.75,0]];outlineConnect=0;fontColor=#232F3E;gradientColor=#4D72F3;gradientDirection=north;fillColor=#3334B9;strokeColor=#ffffff;dashed=0;verticalLabelPosition=bottom;verticalAlign=top;align=center;html=1;fontSize=12;fontStyle=0;aspect=fixed;shape=mxgraph.aws4.resourceIcon;resIcon=mxgraph.aws4.dynamodb;" parent="7" vertex="1">
                    <mxGeometry x="45.000000000000014" y="12" width="78" height="78" as="geometry"/>
                </mxCell>
                <mxCell id="BolRn20qtU3Z9M9oc3L7-8" value="" style="sketch=0;points=[[0,0,0],[0.25,0,0],[0.5,0,0],[0.75,0,0],[1,0,0],[0,1,0],[0.25,1,0],[0.5,1,0],[0.75,1,0],[1,1,0],[0,0.25,0],[0,0.5,0],[0,0.75,0],[1,0.25,0],[1,0.5,0],[1,0.75,0]];outlineConnect=0;fontColor=#232F3E;gradientColor=#FF4F8B;gradientDirection=north;fillColor=#BC1356;strokeColor=#ffffff;dashed=0;verticalLabelPosition=bottom;verticalAlign=top;align=center;html=1;fontSize=12;fontStyle=0;aspect=fixed;shape=mxgraph.aws4.resourceIcon;resIcon=mxgraph.aws4.api_gateway;" parent="7" vertex="1">
                    <mxGeometry x="45.000000000000014" y="221" width="78" height="78" as="geometry"/>
                </mxCell>
                <mxCell id="BolRn20qtU3Z9M9oc3L7-14" style="edgeStyle=orthogonalEdgeStyle;rounded=0;orthogonalLoop=1;jettySize=auto;html=1;exitX=0.5;exitY=0;exitDx=0;exitDy=0;exitPerimeter=0;" parent="7" source="BolRn20qtU3Z9M9oc3L7-26" target="BolRn20qtU3Z9M9oc3L7-7" edge="1">
                    <mxGeometry relative="1" as="geometry">
                        <mxPoint x="188" y="120" as="sourcePoint"/>
                    </mxGeometry>
                </mxCell>
                <mxCell id="BolRn20qtU3Z9M9oc3L7-13" style="edgeStyle=orthogonalEdgeStyle;rounded=0;orthogonalLoop=1;jettySize=auto;html=1;entryX=0.5;entryY=1;entryDx=0;entryDy=0;entryPerimeter=0;" parent="7" source="BolRn20qtU3Z9M9oc3L7-8" target="BolRn20qtU3Z9M9oc3L7-26" edge="1">
                    <mxGeometry relative="1" as="geometry">
                        <mxPoint x="188" y="192" as="targetPoint"/>
                    </mxGeometry>
                </mxCell>
                <mxCell id="BolRn20qtU3Z9M9oc3L7-26" value="Api Handler" style="sketch=0;points=[[0,0,0],[0.25,0,0],[0.5,0,0],[0.75,0,0],[1,0,0],[0,1,0],[0.25,1,0],[0.5,1,0],[0.75,1,0],[1,1,0],[0,0.25,0],[0,0.5,0],[0,0.75,0],[1,0.25,0],[1,0.5,0],[1,0.75,0]];outlineConnect=0;fontColor=#232F3E;gradientColor=#F78E04;gradientDirection=north;fillColor=#D05C17;strokeColor=#ffffff;dashed=0;verticalLabelPosition=bottom;verticalAlign=top;align=center;html=1;fontSize=12;fontStyle=1;aspect=fixed;shape=mxgraph.aws4.resourceIcon;resIcon=mxgraph.aws4.lambda;" parent="7" vertex="1">
                    <mxGeometry x="45.000000000000014" y="115" width="78" height="78" as="geometry"/>
                </mxCell>
                <mxCell id="3" value="DynamoDB Stream&lt;br style=&quot;font-size: 10px&quot;&gt;gathers table writes &lt;br style=&quot;font-size: 10px&quot;&gt;into batches,&lt;br&gt;sends to ingestor &lt;br&gt;at interval" style="edgeStyle=none;html=1;entryX=0;entryY=0.5;entryDx=0;entryDy=0;entryPerimeter=0;fontStyle=2;fontSize=10;labelBackgroundColor=default;" edge="1" parent="7" source="BolRn20qtU3Z9M9oc3L7-7" target="BolRn20qtU3Z9M9oc3L7-27">
                    <mxGeometry x="-0.1328" y="22" relative="1" as="geometry">
                        <Array as="points">
                            <mxPoint x="153" y="60"/>
                            <mxPoint x="153" y="219"/>
                        </Array>
                        <mxPoint as="offset"/>
                    </mxGeometry>
                </mxCell>
                <mxCell id="BolRn20qtU3Z9M9oc3L7-32" value="" style="group;fontStyle=1" parent="7" vertex="1" connectable="0">
                    <mxGeometry x="174.0026229508196" y="193.00018433179724" width="67.05737704918032" height="75.04147465437788" as="geometry"/>
                </mxCell>
                <mxCell id="BolRn20qtU3Z9M9oc3L7-27" value="Ingestor" style="sketch=0;points=[[0,0,0],[0.25,0,0],[0.5,0,0],[0.75,0,0],[1,0,0],[0,1,0],[0.25,1,0],[0.5,1,0],[0.75,1,0],[1,1,0],[0,0.25,0],[0,0.5,0],[0,0.75,0],[1,0.25,0],[1,0.5,0],[1,0.75,0]];outlineConnect=0;fontColor=#232F3E;gradientColor=#F78E04;gradientDirection=north;fillColor=#D05C17;strokeColor=#ffffff;dashed=0;verticalLabelPosition=bottom;verticalAlign=top;align=center;html=1;fontSize=12;fontStyle=0;aspect=fixed;shape=mxgraph.aws4.resourceIcon;resIcon=mxgraph.aws4.lambda;" parent="BolRn20qtU3Z9M9oc3L7-32" vertex="1">
                    <mxGeometry width="51.78688524590163" height="51.78688524590163" as="geometry"/>
                </mxCell>
                <mxCell id="BolRn20qtU3Z9M9oc3L7-33" value="Inserts new STAC&lt;br&gt;Items&amp;nbsp;into&amp;nbsp;Database" style="edgeStyle=orthogonalEdgeStyle;rounded=1;orthogonalLoop=1;jettySize=auto;html=1;exitX=1;exitY=0.5;exitDx=0;exitDy=0;exitPerimeter=0;entryX=0;entryY=0.5;entryDx=0;entryDy=0;entryPerimeter=0;fontSize=10;fontStyle=2" parent="1" source="BolRn20qtU3Z9M9oc3L7-27" target="BolRn20qtU3Z9M9oc3L7-23" edge="1">
                    <mxGeometry relative="1" as="geometry"/>
                </mxCell>
                <mxCell id="BolRn20qtU3Z9M9oc3L7-42" style="edgeStyle=orthogonalEdgeStyle;rounded=0;orthogonalLoop=1;jettySize=auto;html=1;entryX=0;entryY=0.5;entryDx=0;entryDy=0;entryPerimeter=0;fontSize=10;exitX=1;exitY=0.75;exitDx=0;exitDy=0;" parent="1" source="BolRn20qtU3Z9M9oc3L7-41" target="BolRn20qtU3Z9M9oc3L7-8" edge="1">
                    <mxGeometry relative="1" as="geometry">
                        <Array as="points">
                            <mxPoint x="370" y="393"/>
                            <mxPoint x="370" y="370"/>
                        </Array>
                    </mxGeometry>
                </mxCell>
                <mxCell id="11" value="&lt;i&gt;user may directly&lt;br&gt;register new&lt;br&gt;STAC items&lt;/i&gt;" style="edgeLabel;html=1;align=center;verticalAlign=middle;resizable=0;points=[];fontSize=10;fontColor=default;" vertex="1" connectable="0" parent="BolRn20qtU3Z9M9oc3L7-42">
                    <mxGeometry x="-0.3045" y="-1" relative="1" as="geometry">
                        <mxPoint x="-24" as="offset"/>
                    </mxGeometry>
                </mxCell>
            </root>
        </mxGraphModel>
    </diagram>
</mxfile>